<?xml version="1.0" standalone="no"?>
<!DOCTYPE svg PUBLIC "-//W3C//DTD SVG 20010904//EN"
 "http://www.w3.org/TR/2001/REC-SVG-20010904/DTD/svg10.dtd">
<svg version="1.0" xmlns="http://www.w3.org/2000/svg"
 width="328.000000pt" height="328.000000pt" viewBox="0 0 328.000000 328.000000"
 preserveAspectRatio="xMidYMid meet">
<metadata>
Created by potrace 1.14, written by Peter Selinger 2001-2017
</metadata>
<g transform="translate(0.000000,328.000000) scale(0.100000,-0.100000)"
fill="#000000" stroke="none">
<path d="M40 3270 c0 -5 5 -10 11 -10 6 0 8 -7 5 -16 -3 -8 -2 -12 4 -9 9 5
12 -1 9 -21 0 -4 4 -10 11 -14 6 -4 12 -20 13 -36 1 -16 7 -35 14 -42 20 -21
45 -123 45 -188 0 -70 -27 -141 -52 -136 -8 2 -12 0 -8 -3 4 -4 -4 -22 -18
-40 -14 -19 -30 -50 -35 -69 -9 -31 -6 -43 13 -79 13 -23 27 -45 31 -48 5 -3
8 -8 7 -10 -1 -2 4 -15 10 -29 l10 -25 -5 28 -6 28 68 -35 c85 -43 143 -106
143 -156 0 -11 5 -20 11 -20 6 0 8 -9 4 -20 -3 -11 -2 -20 4 -20 5 0 16 -12
23 -27 15 -30 38 -42 38 -20 0 17 46 73 123 149 56 56 58 59 86 170 46 181 71
299 75 350 4 49 31 97 75 134 l25 21 -34 19 c-34 17 -42 20 -76 27 -8 2 -20
10 -25 18 -7 11 -9 11 -9 -3 0 -10 -4 -18 -10 -18 -5 0 -14 8 -20 18 -10 15
-11 15 -6 0 4 -15 1 -16 -20 -8 -14 6 -36 7 -50 4 -19 -5 -24 -2 -24 13 0 10
6 25 13 32 10 11 10 14 0 18 -7 3 -13 14 -13 24 0 11 5 17 10 14 18 -11 11 4
-12 25 -18 16 -35 20 -95 20 l-73 0 0 -41 c0 -28 4 -38 12 -33 8 5 9 -2 5 -26
-4 -18 -7 -36 -7 -41 0 -5 -8 -6 -17 -3 -11 4 -14 3 -7 -3 16 -12 24 -41 12
-45 -15 -5 -40 -76 -45 -129 -4 -40 -1 -50 21 -72 13 -14 22 -28 19 -31 -4 -3
5 -6 18 -6 18 0 20 -3 10 -9 -24 -16 61 -10 98 6 28 13 35 13 42 2 7 -11 9
-10 9 5 0 13 5 16 16 12 9 -4 23 -1 30 5 8 6 14 7 14 2 0 -12 -55 -53 -71 -53
-6 0 -9 -7 -5 -15 3 -9 -3 -19 -14 -25 -11 -6 -17 -16 -14 -24 3 -7 -2 -16
-11 -20 -9 -3 -13 -10 -10 -16 3 -6 -1 -13 -9 -16 -9 -3 -13 -10 -10 -15 3 -6
1 -15 -4 -22 -9 -11 -25 -66 -27 -92 -1 -5 -5 -20 -9 -33 -4 -13 -8 -57 -9
-97 -1 -55 -4 -72 -14 -68 -7 3 -11 9 -8 13 3 4 -2 13 -10 20 -8 7 -12 16 -9
21 3 5 -1 9 -9 9 -8 0 -17 6 -20 14 -6 14 -140 106 -156 106 -6 0 -14 6 -18
13 -4 8 -16 17 -26 20 -10 4 -15 11 -12 17 3 5 1 10 -5 10 -7 0 -10 7 -7 15 4
8 1 17 -4 21 -17 10 0 55 40 103 21 25 43 61 50 79 30 72 8 242 -45 360 -29
63 -29 63 -7 55 15 -6 16 -5 3 9 -9 10 -17 12 -21 6 -4 -7 -9 -6 -13 1 -9 14
-36 15 -36 1z"/>
<path d="M591 3264 c0 -11 3 -14 6 -6 3 7 2 16 -1 19 -3 4 -6 -2 -5 -13z"/>
<path d="M1106 3265 c-3 -8 -3 -22 1 -31 5 -13 2 -15 -18 -9 -21 7 -22 6 -10
-8 7 -9 17 -14 22 -11 5 3 4 -6 -2 -20 -7 -14 -16 -23 -20 -20 -5 3 -7 -1 -4
-8 2 -7 6 -33 9 -58 3 -24 13 -48 21 -53 25 -14 37 -45 25 -66 -8 -16 -6 -23
12 -36 13 -8 23 -21 24 -28 1 -20 25 -77 32 -77 4 0 25 7 47 15 22 8 59 14 83
15 29 0 71 14 135 45 100 49 178 68 237 59 l38 -6 4 108 c3 84 9 120 25 157
l22 47 -338 0 c-292 0 -340 -2 -345 -15z"/>
<path d="M1875 3271 c-56 -24 -95 -130 -95 -259 l0 -87 -56 3 c-79 5 -194 -30
-245 -74 -8 -8 -50 -18 -92 -24 -73 -11 -179 -50 -193 -71 -10 -17 -41 19 -94
106 -60 99 -102 140 -169 165 l-51 20 -60 -30 c-33 -17 -66 -40 -74 -53 -9
-12 -23 -65 -32 -117 -9 -52 -35 -169 -58 -260 l-43 -165 -69 -70 c-132 -132
-160 -226 -134 -440 5 -44 12 -100 15 -125 3 -25 8 -61 11 -80 25 -138 28
-212 12 -266 -9 -27 -21 -68 -27 -90 -6 -23 -36 -79 -67 -125 -101 -150 -222
-429 -254 -584 -4 -22 -15 -74 -23 -115 -28 -132 -57 -358 -57 -446 l0 -85
358 5 c196 3 389 6 427 5 39 0 581 -2 1205 -5 l1135 -4 2 67 c2 65 57 271 113
421 11 29 20 77 20 106 l0 54 -57 -13 c-32 -7 -91 -20 -132 -29 -41 -9 -77
-14 -80 -11 -3 3 10 18 29 32 55 42 105 97 123 135 33 69 17 174 -45 305 l-30
63 22 71 c20 65 22 84 16 213 -7 133 -12 201 -16 201 0 0 -3 16 -5 36 -4 41
-53 169 -65 169 -4 0 -13 14 -20 30 -7 17 -29 43 -49 58 -35 28 -148 82 -169
82 -6 0 -28 21 -49 47 -21 26 -48 59 -60 73 -30 33 -50 96 -63 195 -5 44 -14
98 -19 120 -5 22 -17 78 -27 123 -17 82 -44 138 -74 152 -8 5 -40 15 -71 24
-56 16 -56 16 -79 79 -70 193 -166 346 -268 427 -54 42 -61 45 -127 47 -38 2
-79 -1 -90 -6z m123 -59 c2 -7 -6 -12 -17 -12 -21 0 -27 11 -14 24 9 9 26 2
31 -12z m25 -36 c8 -8 22 -37 30 -64 9 -27 33 -78 53 -113 20 -35 65 -122 101
-193 56 -112 63 -132 54 -153 -13 -29 -14 -73 -2 -73 5 0 11 10 13 22 4 25 28
37 28 13 0 -9 -10 -29 -22 -45 -19 -26 -22 -46 -25 -143 -3 -69 1 -126 8 -150
7 -20 10 -39 7 -42 -3 -3 -29 9 -57 26 -38 24 -50 37 -45 48 3 9 8 35 11 57 8
61 -19 85 -88 79 -34 -3 -59 -11 -74 -25 l-22 -21 -61 46 c-34 26 -85 72 -112
103 l-51 57 30 3 c18 2 31 9 31 17 0 17 50 29 63 16 8 -8 6 -11 -6 -11 -9 0
-17 -7 -17 -15 0 -10 10 -15 29 -15 16 0 60 -16 97 -36 64 -34 66 -34 61 -12
-4 12 0 29 7 38 24 28 8 82 -36 117 -35 29 -43 31 -88 26 l-49 -6 -7 39 c-4
22 -8 117 -8 212 -1 171 -1 174 23 193 28 23 103 26 124 5z m-1091 -232 c15
-19 28 -25 45 -21 19 4 30 -4 53 -39 17 -23 30 -47 30 -53 0 -6 9 -30 19 -54
40 -89 52 -132 44 -157 -5 -14 -8 -32 -7 -40 1 -8 2 -32 3 -52 1 -31 5 -38 21
-38 17 0 20 7 20 42 l0 41 24 -22 24 -23 -71 -100 c-59 -81 -75 -98 -92 -94
-11 3 -39 6 -63 6 l-43 0 2 60 c2 62 -2 77 -20 65 -7 -4 -9 -29 -6 -66 4 -44
2 -59 -7 -59 -17 1 -68 46 -68 60 0 7 -8 9 -20 5 -29 -9 -26 20 5 50 25 26 45
32 45 15 0 -5 7 -10 15 -10 20 0 19 39 -1 47 -10 3 -31 1 -47 -5 -17 -6 -32
-11 -33 -9 -3 3 24 203 41 297 13 79 48 180 62 180 3 0 14 -12 25 -26z m1028
-243 c0 -14 -22 -28 -52 -33 -32 -6 -39 15 -10 31 21 13 62 14 62 2z m74 -83
c16 -26 1 -31 -36 -12 -18 9 -44 21 -58 25 -18 6 -10 7 29 6 38 -1 57 -7 65
-19z m296 -72 c0 -7 -8 -20 -17 -27 -15 -12 -16 -12 -10 4 4 10 7 23 7 28 0 5
5 9 10 9 6 0 10 -6 10 -14z m-230 -196 c0 -5 -4 -10 -10 -10 -5 0 -10 5 -10
10 0 6 5 10 10 10 6 0 10 -4 10 -10z m-1290 -20 c0 -11 -2 -20 -4 -20 -2 0 -6
9 -9 20 -3 11 -1 20 4 20 5 0 9 -9 9 -20z m58 1 c-13 -21 -28 -19 -28 5 0 8 9
14 20 14 17 0 19 -3 8 -19z m625 -13 c12 -7 29 -20 37 -28 8 -9 35 -28 60 -42
61 -35 117 -94 125 -129 5 -23 1 -36 -19 -60 -14 -17 -26 -34 -26 -39 0 -4
-15 -11 -34 -14 -18 -4 -41 -15 -51 -27 -16 -17 -17 -21 -4 -33 12 -12 63 -24
106 -26 7 0 14 -24 18 -57 8 -86 37 -215 52 -238 7 -11 13 -30 13 -42 0 -13 4
-23 8 -23 16 0 44 39 39 54 -3 8 2 16 12 19 17 4 22 32 9 53 -4 6 18 25 50 44
31 18 69 41 84 51 36 25 48 24 49 -6 1 -14 2 -39 3 -56 0 -18 10 -37 22 -47
12 -10 33 -26 47 -37 43 -32 87 -221 105 -446 12 -144 16 -133 -159 -412 -41
-66 -88 -135 -105 -155 -31 -36 -34 -37 -96 -36 -71 2 -99 15 -208 93 -72 51
-71 50 -163 104 -129 75 -137 84 -221 237 -75 139 -78 146 -87 239 -6 52 -12
98 -14 101 -7 12 25 49 39 44 8 -3 20 11 31 36 16 34 25 42 62 51 23 6 43 15
43 19 0 4 -25 12 -55 19 -30 7 -55 17 -55 22 0 14 -28 11 -33 -3 -3 -8 -6 -6
-6 5 -1 23 -16 22 -33 -4 -17 -26 -58 -18 -58 11 0 25 11 27 89 18 36 -4 95
-7 131 -8 36 0 72 -5 80 -10 13 -8 12 -10 -4 -10 -15 0 -16 -3 -6 -15 9 -11 9
-15 1 -15 -20 0 -9 -54 11 -58 10 -2 29 8 43 22 31 32 33 32 38 4 3 -23 3 -23
15 2 20 46 49 82 57 71 14 -24 22 1 13 41 -33 147 -100 288 -138 288 -20 0
-10 -27 21 -56 17 -16 39 -45 49 -64 20 -41 36 -114 22 -109 -21 9 -117 98
-149 139 l-35 45 56 50 c54 48 55 51 41 72 -9 13 -22 20 -30 17 -24 -10 -37
40 -24 94 31 133 76 252 95 252 8 0 24 -6 37 -12z m-562 -64 c10 -46 10 -114
-1 -133 -9 -17 -13 -15 -50 19 -35 32 -40 42 -40 81 0 42 2 46 33 55 44 15 51
12 58 -22z m1025 -436 c4 -4 -5 -12 -20 -17 -14 -6 -26 -16 -26 -22 0 -13 -22
-32 -63 -55 -27 -14 -28 -14 -24 3 3 10 8 29 11 43 3 14 16 32 30 40 26 16 79
20 92 8z m-731 -166 c6 -4 11 -16 12 -28 2 -19 -1 -20 -43 -14 -57 9 -62 15
-27 34 32 17 44 19 58 8z"/>
<path d="M1962 3088 c-19 -41 -52 -142 -52 -160 0 -4 4 -8 9 -8 5 0 11 18 15
40 10 63 53 153 70 147 10 -4 13 -1 9 9 -10 26 -31 15 -51 -28z"/>
<path d="M1944 2938 c-4 -7 -3 -8 4 -4 26 16 66 -27 87 -93 l7 -24 -28 20
c-35 25 -74 38 -74 25 0 -5 19 -22 42 -37 63 -42 88 -73 88 -111 0 -36 10 -43
29 -20 9 11 9 22 -2 49 -8 19 -20 38 -26 41 -6 4 -11 21 -11 37 0 38 -22 82
-56 108 -30 24 -49 27 -60 9z"/>
<path d="M2161 2742 c-38 -72 -53 -230 -25 -270 22 -32 36 -27 30 11 -15 88
-15 180 0 224 16 47 13 69 -5 35z"/>
<path d="M1855 2589 c-4 -5 13 -29 38 -52 24 -23 49 -51 55 -62 14 -25 26 -13
18 18 -12 51 -95 122 -111 96z"/>
<path d="M898 2803 c-23 -37 -24 -42 -16 -138 10 -133 13 -141 53 -168 29 -18
35 -28 35 -58 0 -28 5 -38 25 -47 l25 -12 0 57 c0 31 6 72 12 91 11 29 10 35
-5 43 -16 9 -16 12 -1 34 15 22 15 25 1 31 -9 3 -21 3 -27 -1 -7 -4 -4 7 5 25
26 51 11 59 -30 15 -35 -36 -37 -37 -21 -9 10 17 31 46 47 64 23 25 27 36 18
46 -16 19 -32 17 -63 -7 -18 -14 -26 -31 -27 -52 -1 -31 -1 -31 -10 8 -8 33
-6 46 11 78 17 29 18 37 7 37 -8 0 -25 -17 -39 -37z m52 -273 c-1 -3 -7 4 -15
14 -8 11 -15 31 -15 45 1 22 3 19 15 -14 8 -22 15 -42 15 -45z"/>
<path d="M1929 1712 c-63 -48 -88 -79 -51 -64 38 16 82 47 82 59 0 7 5 13 10
13 6 0 10 5 10 10 0 16 -12 11 -51 -18z"/>
<path d="M1630 1601 c0 -5 -8 -8 -17 -7 -14 1 -17 -5 -15 -29 7 -59 48 -108
46 -55 -1 18 1 19 16 5 21 -19 26 -19 34 2 10 25 -13 85 -30 79 -8 -3 -14 -1
-14 4 0 6 -4 10 -10 10 -5 0 -10 -4 -10 -9z"/>
<path d="M1850 1278 c0 -19 -5 -28 -16 -28 -8 0 -36 -16 -61 -35 -46 -35 -47
-35 -136 -32 -82 3 -92 6 -100 25 -15 33 -27 27 -27 -13 0 -37 18 -62 70 -98
15 -11 21 -20 15 -26 -12 -12 -96 -32 -107 -25 -4 3 -10 20 -14 39 -3 20 -11
38 -16 41 -11 7 -88 -64 -88 -82 0 -7 39 -31 88 -53 98 -46 96 -45 146 -84 19
-16 57 -35 83 -42 42 -11 44 -13 17 -14 -35 -1 -70 -23 -60 -39 3 -6 20 -13
36 -17 17 -4 30 -10 30 -15 0 -29 141 -40 179 -14 29 21 71 109 71 151 0 18
11 49 25 69 14 20 25 48 25 62 0 15 18 51 39 82 45 64 55 107 29 123 -23 15
-73 -21 -73 -53 0 -17 -10 -28 -30 -36 -55 -24 -145 -14 -105 11 15 9 12 89
-5 111 -14 18 -14 18 -15 -8z m130 -172 c0 -14 -72 -71 -114 -91 -88 -42 -256
-58 -256 -24 0 13 28 24 125 49 97 26 135 40 135 51 0 7 31 13 88 17 12 1 22
0 22 -2z"/>
<path d="M2155 3255 c17 -14 33 -25 38 -25 4 0 7 -6 7 -12 0 -7 11 -26 23 -42
23 -29 25 -29 78 -19 61 12 79 7 119 -37 14 -15 39 -36 56 -48 24 -16 30 -27
27 -45 -5 -25 18 -79 44 -105 8 -8 11 -18 6 -21 -4 -3 -22 -19 -39 -34 -29
-26 -32 -27 -60 -12 -41 21 -68 20 -59 -2 4 -10 11 -30 17 -44 9 -28 71 -59
115 -59 13 0 31 -13 44 -31 25 -35 68 -153 69 -186 0 -12 5 -25 10 -28 6 -3
10 -21 10 -39 0 -18 6 -41 14 -51 13 -18 14 -17 30 13 30 58 111 91 176 71 47
-15 52 -22 41 -52 -8 -21 -6 -31 11 -52 18 -23 25 -26 59 -20 32 6 39 4 39 -9
0 -9 -7 -16 -16 -16 -8 0 -13 -4 -9 -9 3 -5 -4 -12 -15 -16 -11 -3 -25 -15
-31 -26 -5 -11 -14 -17 -18 -14 -5 2 -12 -11 -15 -30 -4 -19 -11 -35 -16 -35
-6 0 -10 -15 -10 -34 0 -40 -8 -47 -70 -61 -53 -12 -60 -35 -15 -48 17 -5 59
-20 95 -33 72 -27 90 -29 90 -13 0 5 -5 7 -10 4 -12 -7 -89 35 -110 60 -13 15
-11 16 19 12 17 -3 37 -10 44 -15 9 -8 12 3 12 42 0 46 5 59 36 97 20 25 71
67 113 94 42 27 76 53 76 58 0 5 -6 7 -13 4 -25 -9 -39 30 -26 68 7 19 16 32
21 29 12 -7 -4 29 -19 44 -18 18 -16 35 3 28 9 -3 18 -6 20 -6 2 0 4 -7 4 -15
0 -8 3 -15 6 -15 10 0 54 50 54 60 0 5 6 7 14 4 10 -4 13 -25 12 -85 -2 -43
-6 -82 -9 -86 -12 -11 -8 -23 9 -23 8 0 13 -4 9 -9 -3 -5 -1 -12 5 -16 7 -4
10 59 10 189 0 150 -3 196 -12 196 -8 0 -9 3 -3 8 6 4 11 46 13 93 2 72 0 86
-13 86 -10 0 -15 -10 -15 -29 0 -16 -7 -45 -15 -64 -11 -28 -19 -35 -37 -32
-34 5 -36 54 -3 101 32 48 31 50 -5 42 -23 -5 -30 -3 -30 9 0 24 -26 19 -58
-9 -16 -14 -37 -32 -48 -39 -10 -8 -16 -18 -11 -22 4 -4 21 2 37 15 l30 22 0
-31 c0 -17 -9 -51 -20 -76 -16 -34 -26 -44 -44 -44 -30 0 -42 32 -52 140 -3
41 -8 86 -9 100 -4 33 11 60 34 60 11 0 51 -13 89 -30 84 -36 172 -42 172 -12
0 14 -10 17 -56 18 -46 1 -60 5 -82 27 -21 22 -26 36 -27 78 0 68 19 71 98 18
33 -21 60 -39 61 -39 2 0 3 33 4 73 0 48 -2 65 -8 52 -7 -17 -9 -17 -9 -2 -1
10 -9 17 -21 17 -17 0 -18 -3 -9 -27 6 -15 15 -33 21 -40 19 -23 3 -23 -30 0
-17 12 -34 32 -37 45 -7 27 -55 32 -55 5 0 -15 -1 -15 -18 0 -14 13 -38 17
-91 17 -68 0 -72 -1 -81 -26 -13 -32 -3 -72 21 -87 11 -7 19 -18 19 -26 0 -28
-43 -89 -74 -103 -17 -9 -49 -38 -71 -66 -45 -57 -93 -89 -120 -78 -17 6 -17
7 0 26 18 20 17 20 -21 20 -34 0 -45 7 -91 55 -28 31 -50 62 -47 69 3 9 -7 15
-32 19 -36 6 -104 45 -104 60 0 4 14 7 30 7 32 0 96 27 87 37 -3 3 -21 0 -41
-7 -45 -15 -110 -4 -101 18 3 8 1 30 -6 49 l-11 33 -126 0 -127 -1 30 -24z
m805 -498 c0 -33 -25 -65 -40 -51 -9 9 -8 19 4 43 19 37 36 40 36 8z m45 -6
c3 -5 1 -12 -5 -16 -5 -3 -10 1 -10 9 0 18 6 21 15 7z m55 -47 c-22 -57 -42
-83 -63 -84 -11 0 0 34 25 76 24 42 53 48 38 8z m120 -66 c0 -54 -4 -57 -31
-26 -22 25 -22 22 -8 73 10 37 12 38 25 20 8 -10 14 -40 14 -67z m60 33 c0
-21 -16 -2 -24 29 -7 24 -6 24 8 6 9 -11 16 -27 16 -35z m-255 12 c-15 -34
-17 -73 -6 -87 15 -17 -21 -51 -45 -42 -25 9 -11 102 19 127 28 23 41 24 32 2z
m85 -73 c-6 -11 -18 -20 -27 -20 -14 0 -14 2 2 20 10 11 22 20 27 20 5 0 4 -9
-2 -20z m5 -40 c3 -5 -1 -10 -9 -10 -9 0 -16 5 -16 10 0 6 4 10 9 10 6 0 13
-4 16 -10z"/>
<path d="M2798 3237 c6 -74 -9 -108 -63 -145 -27 -18 -54 -31 -62 -28 -7 3
-13 0 -13 -6 0 -16 65 -3 107 23 19 12 41 36 47 53 15 38 9 146 -7 146 -8 0
-11 -15 -9 -43z"/>
<path d="M295 3260 c-3 -5 1 -10 9 -10 9 0 16 5 16 10 0 6 -4 10 -9 10 -6 0
-13 -4 -16 -10z"/>
<path d="M646 3255 c-9 -9 -13 -22 -9 -28 4 -7 8 -6 11 3 3 8 10 18 16 22 6 4
8 10 4 13 -3 3 -13 -1 -22 -10z"/>
<path d="M1030 3260 c-24 -8 -23 -8 8 -9 17 -1 32 4 32 9 0 11 -5 11 -40 0z"/>
<path d="M871 3244 c0 -11 3 -14 6 -6 3 7 2 16 -1 19 -3 4 -6 -2 -5 -13z"/>
<path d="M187 3226 c-6 -14 0 -26 14 -26 8 0 6 26 -3 35 -3 3 -8 -1 -11 -9z"/>
<path d="M777 3210 c3 -11 7 -20 9 -20 2 0 4 9 4 20 0 11 -4 20 -9 20 -5 0 -7
-9 -4 -20z"/>
<path d="M30 3191 c0 -6 4 -13 10 -16 6 -3 7 1 4 9 -7 18 -14 21 -14 7z"/>
<path d="M826 3181 c-4 -5 3 -7 14 -4 23 6 26 13 6 13 -8 0 -17 -4 -20 -9z"/>
<path d="M952 3174 c10 -10 20 -16 22 -13 3 3 -5 11 -17 18 -21 13 -21 12 -5
-5z"/>
<path d="M760 3121 c0 -5 7 -12 16 -15 14 -5 15 -4 4 9 -14 17 -20 19 -20 6z"/>
<path d="M1111 3013 c7 -12 15 -20 18 -17 3 2 -3 12 -13 22 -17 16 -18 16 -5
-5z"/>
<path d="M142 2492 c-9 -6 -10 -16 -4 -32 9 -24 9 -23 14 8 2 18 4 32 4 32 -1
0 -7 -4 -14 -8z"/>
<path d="M95 2463 c-4 -13 -11 -23 -16 -23 -5 0 -6 7 -2 17 5 13 2 15 -18 10
-13 -4 -32 -7 -42 -7 -17 0 -18 -17 -16 -340 2 -294 4 -340 17 -335 10 4 12 0
8 -11 -4 -9 -1 -23 5 -30 6 -8 9 -23 6 -34 -3 -11 -1 -20 4 -20 4 0 6 -7 3
-15 -4 -9 0 -15 7 -15 11 -1 11 -3 -1 -13 -9 -7 -15 -29 -15 -55 0 -29 -5 -47
-15 -52 -13 -7 -15 -83 -16 -572 -2 -489 0 -553 11 -488 25 146 98 413 142
520 36 89 123 246 157 282 73 79 104 196 87 329 -29 220 -50 434 -53 537 -1
62 -6 118 -10 125 -5 8 -8 5 -8 -7 0 -19 -1 -19 -21 2 -11 12 -17 26 -14 31 3
5 -2 11 -12 13 -15 3 -15 5 3 22 21 22 22 22 -33 -1 -9 -3 -13 4 -13 22 0 22
-3 25 -20 20 -14 -5 -20 -2 -20 9 0 9 -7 16 -15 16 -8 0 -15 7 -15 15 0 9 -9
15 -24 15 -17 0 -27 8 -34 28 -10 26 -11 27 -17 5z"/>
<path d="M3235 2276 c-6 -13 -4 -21 3 -24 7 -2 12 -11 12 -19 0 -13 -2 -13
-16 -2 -14 11 -18 10 -30 -6 -8 -10 -14 -24 -15 -29 -1 -17 -6 -40 -14 -58 -4
-11 -3 -18 4 -18 17 0 13 -14 -11 -40 -13 -14 -22 -27 -22 -30 3 -11 -42 -56
-52 -53 -14 5 -84 -25 -84 -35 0 -14 58 -52 78 -52 11 0 25 -7 32 -15 19 -23
30 -18 24 13 -6 34 28 74 92 103 56 27 58 43 3 24 -49 -18 -52 -18 -45 -6 4 5
3 11 -1 14 -5 2 -3 2 4 1 6 -2 14 4 17 12 3 8 18 14 33 14 l28 0 2 90 c1 54
-2 90 -8 90 -6 0 -7 5 -3 12 4 6 3 8 -4 4 -6 -3 -12 2 -15 11 -4 17 -5 16 -12
-1z m-5 -71 c0 -33 -15 -33 -16 0 -1 14 2 25 7 25 5 0 9 -11 9 -25z"/>
<path d="M3224 1772 c-6 -4 -19 -23 -29 -42 -9 -19 -24 -43 -32 -52 -18 -20
-9 -38 17 -38 22 0 45 31 55 73 7 27 16 33 28 20 4 -3 0 -14 -9 -24 -15 -17
-15 -19 0 -34 19 -20 13 -35 -45 -109 l-39 -49 0 -148 c0 -82 -5 -168 -11
-191 -11 -40 -9 -51 25 -140 32 -86 43 -134 46 -203 1 -19 1 -19 14 -2 7 9 18
17 25 17 8 0 11 124 11 465 l0 465 -22 0 c-13 0 -28 -4 -34 -8z"/>
<path d="M0 1671 c0 -5 5 -13 10 -16 5 -3 10 -2 10 4 0 5 -4 13 -10 16 -5 3
-10 2 -10 -4z"/>
</g>
</svg>
